<?xml version="1.0" encoding="UTF-8" standalone="no"?> <!-- Created with Vectornator for iOS (http://vectornator.io/) --><!DOCTYPE svg PUBLIC "-//W3C//DTD SVG 1.1//EN" "http://www.w3.org/Graphics/SVG/1.1/DTD/svg11.dtd">
<svg xmlns="http://www.w3.org/2000/svg" xmlns:xlink="http://www.w3.org/1999/xlink" xml:space="preserve" width="100%" height="100%" viewBox="0 0 652.05 158.76" style="fill-rule:nonzero;clip-rule:evenodd;stroke-linecap:round;stroke-linejoin:round;" xmlns:vectornator="http://vectornator.io" version="1.1">
<metadata>
<vectornator:setting key="VNDimensionsVisible" value="true"/>
<vectornator:setting value="false" key="WDSnapToGrid"/>
<vectornator:setting key="WDDisplayWhiteBackground" value="false"/>
<vectornator:setting value="false" key="WDSnapToEdges"/>
<vectornator:setting key="WDRulersVisible" value="true"/>
<vectornator:setting value="true" key="VNSnapToGuides"/>
<vectornator:setting value="false" key="WDOutlineMode"/>
<vectornator:setting value="true" key="WDCMYKEnabledKey"/>
<vectornator:setting value="false" key="UndoHistoryDisabled"/>
<vectornator:setting key="WDIsolateActiveLayer" value="false"/>
<vectornator:setting key="WDGuidesVisible" value="true"/>
<vectornator:setting value="false" key="IsTimeLapseWatermarkDisabled"/>
<vectornator:setting value="Millimeters" key="WDUnits"/>
<vectornator:setting value="true" key="WDDynamicGuides"/>
<vectornator:setting value="false" key="WDSnapToPoints"/>
</metadata>
<defs/>
<g id="Capa 1" vectornator:layerName="Capa 1">
<g opacity="1">
<path stroke="#45a183" opacity="1" d="M129.895+125.438L116.94+117.958L116.94+110.479L129.895+117.958L129.895+125.438Z" fill="#45a183" stroke-linecap="round" stroke-width="1" stroke-linejoin="round"/>
<path stroke-width="1" stroke-linecap="round" stroke-linejoin="round" d="M26.2536+80.5599L39.2088+73.0802L78.0743+95.5192L65.1191+102.999L26.2536+80.5599Z" opacity="1" fill="#7bedc2" stroke="#7bedc2"/>
<path stroke-linecap="round" opacity="1" fill="#7bedc2" stroke-linejoin="round" d="M97.5071+106.739L84.5519+99.259L91.0295+88.0395L103.985+95.5192L97.5071+106.739Z" stroke="#7bedc2" stroke-width="1"/>
<path opacity="1" stroke-linejoin="round" stroke-width="1" stroke-linecap="round" stroke="#7bedc2" fill="#7bedc2" d="M129.895+80.5599L116.94+73.0802L91.0295+88.0395L103.985+95.5192L129.895+80.5599Z"/>
<path stroke-width="1" stroke-linecap="round" d="M110.462+121.698L97.5071+114.218L110.462+106.739L116.94+95.5192L129.895+102.999L123.417+114.218L110.462+121.698Z" opacity="1" stroke-linejoin="round" stroke="#7bedc2" fill="#7bedc2"/>
<path stroke-linejoin="round" opacity="1" d="M97.5071+144.137L84.5519+136.657L84.5519+99.259L97.5071+106.739L97.5071+144.137Z" stroke-width="1" stroke="#45a183" stroke-linecap="round" fill="#45a183"/>
<path stroke-width="1" stroke-linejoin="round" fill="#5a6e66" stroke-linecap="round" opacity="1" stroke="#5a6e66" d="M26.2536+125.438L39.2088+117.958L39.2088+88.0395L26.2536+95.5192L26.2536+125.438Z"/>
<path stroke="#5a6e66" d="M78.0743+155.357L91.0295+147.877L78.0743+110.479L65.1191+117.958L78.0743+155.357Z" fill="#5a6e66" stroke-linecap="round" stroke-linejoin="round" stroke-width="1" opacity="1"/>
<path stroke-linecap="round" fill="#5a6e66" d="M26.2536+80.5599L39.2088+73.0802L39.2088+58.1208L26.2536+65.6005L26.2536+80.5599Z" stroke-linejoin="round" opacity="1" stroke-width="1" stroke="#5a6e66"/>
<path d="M52.164+35.6818L39.2088+43.1615L39.2088+58.1208L52.164+50.6412L52.164+35.6818Z" fill="#5a6e66" stroke-width="1" stroke-linejoin="round" stroke-linecap="round" stroke="#5a6e66" opacity="1"/>
<path stroke-linejoin="round" stroke-width="1" stroke-linecap="round" d="M65.1191+28.2021L78.0743+20.7225L78.0743+35.6818L65.1191+43.1615L65.1191+28.2021Z" opacity="1" stroke="#5a6e66" fill="#5a6e66"/>
<path stroke="#5a6e66" opacity="1" stroke-width="1" stroke-linejoin="round" stroke-linecap="round" d="M78.0743+50.6412L91.0295+43.1615L91.0295+58.1208L78.0743+65.6005L78.0743+50.6412Z" fill="#5a6e66"/>
<path stroke="#45a183" fill="#45a183" opacity="1" stroke-width="1" d="M78.0743+20.7225L78.0743+35.6818L116.94+58.1208L116.94+43.1615L78.0743+20.7225Z" stroke-linejoin="round" stroke-linecap="round"/>
<path opacity="1" fill="#45a183" d="M52.164+35.6818L52.164+50.6412L78.0743+65.6005L78.0743+50.6412L52.164+35.6818Z" stroke-linecap="round" stroke="#45a183" stroke-width="1" stroke-linejoin="round"/>
<path stroke-width="1" stroke="#45a183" d="M129.895+80.5599L116.94+73.0802L116.94+58.1208L129.895+65.6005L129.895+80.5599Z" fill="#45a183" opacity="1" stroke-linejoin="round" stroke-linecap="round"/>
<path d="M129.895+102.999L116.94+95.5192L116.94+88.0395L129.895+95.5192L129.895+102.999Z" fill="#45a183" opacity="1" stroke-linecap="round" stroke-linejoin="round" stroke-width="1" stroke="#45a183"/>
<path stroke="#45a183" opacity="1" fill="#45a183" stroke-linecap="round" stroke-linejoin="round" stroke-width="1" d="M13.2984+43.164L13.2984+117.963L26.2491+125.434L26.2491+95.5248L52.1631+110.48L65.1138+147.873L78.0771+155.357L65.1138+117.963L78.0771+110.48L78.0771+80.5573L13.2984+43.164ZM26.2491+65.6025L65.1138+88.0411L65.1138+102.996L26.2491+80.5573L26.2491+65.6025Z"/>
<path opacity="1" stroke-width="1" stroke-linecap="round" fill="#5a6e66" stroke="#5a6e66" d="M142.845+43.1645L78.0791+80.5578L78.0791+110.48L91.0297+102.996L91.0297+88.0416L129.894+65.603L129.894+80.5578L103.98+95.5253L97.5114+106.738L97.5114+144.132L123.413+129.177L129.894+117.964L129.894+125.435L142.845+117.964L142.845+43.1645ZM129.894+95.5253L129.894+102.996L123.413+114.222L110.462+121.693L110.462+114.222L116.944+102.996L129.894+95.5253Z" stroke-linejoin="round"/>
<path stroke-linejoin="round" stroke="#7bedc2" stroke-width="1" d="M78.0842+5.76312L45.6864+24.4648L13.3055+43.1691L78.0842+80.5624L142.85+43.1691L78.0842+5.76312ZM78.0752+20.725L116.94+43.1635L78.0752+65.602L39.2105+43.1635L52.1612+35.6798L78.0752+50.6346L91.0258+43.1635L65.1118+28.1961L78.0752+20.725Z" fill="#7bedc2" opacity="1" stroke-linecap="round"/>
</g>
<path fill="#84a196" d="M190.752+13.2286L190.752+13.2286L190.752+31.6561L190.752+31.6561L190.752+13.2286Z" opacity="1"/>
</g>
<g id="Capa 2" vectornator:layerName="Capa 2">
<path fill="#84a196" stroke-linecap="round" stroke-linejoin="round" d="M190.752+116.96L202.552+116.96L202.552+85.7599L229.352+85.7599L242.352+116.96L254.552+116.96L241.152+84.5599C249.352+81.5599+254.552+73.7599+254.552+64.9599C254.552+53.5599+246.152+44.1599+233.552+44.1599L190.752+44.1599L190.752+116.96ZM202.552+75.3599L202.552+54.5599L232.352+54.5599C238.552+54.5599+242.752+58.7599+242.752+64.9599C242.752+71.1599+238.552+75.3599+232.352+75.3599L202.552+75.3599Z" stroke-width="0.1" stroke="#5a6e66" opacity="1"/>
<path stroke-linejoin="round" opacity="1" stroke="#5a6e66" stroke-width="0.1" fill="#84a196" d="M259.952+116.96L271.752+116.96L275.952+106.56L316.752+106.56L321.152+116.96L332.752+116.96L301.552+44.1599L291.152+44.1599L259.952+116.96ZM280.352+96.1599L296.352+57.7599L312.352+96.1599L280.352+96.1599Z" stroke-linecap="round"/>
<path stroke-linecap="round" fill="#84a196" stroke-linejoin="round" stroke="#5a6e66" opacity="1" stroke-width="0.1" d="M340.752+116.96L352.352+116.96L352.352+63.3599L377.752+87.7599L403.152+63.3599L403.152+116.96L414.752+116.96L414.752+44.1599L406.952+44.1599L377.752+73.1599L348.752+44.1599L340.752+44.1599L340.752+116.96Z"/>
<path d="M451.352+116.96L462.952+116.96L462.952+54.5599L489.752+54.5599L489.752+44.1599L424.552+44.1599L424.552+54.5599L451.352+54.5599L451.352+116.96Z" stroke-linecap="round" fill="#84a196" stroke="#5a6e66" opacity="1" stroke-width="0.1" stroke-linejoin="round"/>
<path d="M499.552+116.96L563.552+116.96L563.552+106.56L511.352+106.56L511.352+85.7599L562.752+85.7599L562.752+75.3599L511.352+75.3599L511.352+54.5599L563.552+54.5599L563.552+44.1599L499.552+44.1599L499.552+116.96Z" stroke-width="0.1" stroke="#5a6e66" stroke-linecap="round" stroke-linejoin="round" opacity="1" fill="#84a196"/>
<path stroke="#5a6e66" fill="#84a196" stroke-linejoin="round" d="M612.152+117.96C622.352+117.96+631.752+113.76+638.552+106.96L630.752+99.1599C626.152+104.16+619.552+107.36+612.152+107.36C597.352+107.36+586.352+95.3599+586.352+80.5599C586.352+65.7599+597.352+53.7599+612.152+53.7599C619.752+53.7599+626.152+56.7599+630.752+61.7599L638.752+53.7599C632.152+47.3599+623.152+43.1599+612.152+43.1599C591.552+43.1599+574.352+59.9599+574.352+80.5599C574.352+102.76+589.952+117.96+612.152+117.96Z" opacity="1" stroke-width="0.1" stroke-linecap="round"/>
<path stroke="#5a6e66" stroke-width="0.1" stroke-linecap="round" stroke-linejoin="round" fill="#84a196" opacity="1" d="M190.752+116.96L202.552+116.96L202.552+85.7599L229.352+85.7599L242.352+116.96L254.552+116.96L241.152+84.5599C249.352+81.5599+254.552+73.7599+254.552+64.9599C254.552+53.5599+246.152+44.1599+233.552+44.1599L190.752+44.1599L190.752+116.96ZM202.552+75.3599L202.552+54.5599L232.352+54.5599C238.552+54.5599+242.752+58.7599+242.752+64.9599C242.752+71.1599+238.552+75.3599+232.352+75.3599L202.552+75.3599Z"/>
<path stroke-linecap="round" opacity="1" stroke-width="0.1" d="M259.952+116.96L271.752+116.96L275.952+106.56L316.752+106.56L321.152+116.96L332.752+116.96L301.552+44.1599L291.152+44.1599L259.952+116.96ZM280.352+96.1599L296.352+57.7599L312.352+96.1599L280.352+96.1599Z" fill="#84a196" stroke="#5a6e66" stroke-linejoin="round"/>
<path fill="#84a196" stroke="#5a6e66" d="M340.752+116.96L352.352+116.96L352.352+63.3599L377.752+87.7599L403.152+63.3599L403.152+116.96L414.752+116.96L414.752+44.1599L406.952+44.1599L377.752+73.1599L348.752+44.1599L340.752+44.1599L340.752+116.96Z" opacity="1" stroke-width="0.1" stroke-linecap="round" stroke-linejoin="round"/>
<path stroke="#5a6e66" stroke-linecap="round" fill="#84a196" stroke-width="0.1" stroke-linejoin="round" d="M451.352+116.96L462.952+116.96L462.952+54.5599L489.752+54.5599L489.752+44.1599L424.552+44.1599L424.552+54.5599L451.352+54.5599L451.352+116.96Z" opacity="1"/>
<path fill="#84a196" stroke-linecap="round" stroke-width="0.1" opacity="1" d="M499.552+116.96L563.552+116.96L563.552+106.56L511.352+106.56L511.352+85.7599L562.752+85.7599L562.752+75.3599L511.352+75.3599L511.352+54.5599L563.552+54.5599L563.552+44.1599L499.552+44.1599L499.552+116.96Z" stroke-linejoin="round" stroke="#5a6e66"/>
<path stroke-linecap="round" opacity="1" d="M612.152+117.96C622.352+117.96+631.752+113.76+638.552+106.96L630.752+99.1599C626.152+104.16+619.552+107.36+612.152+107.36C597.352+107.36+586.352+95.3599+586.352+80.5599C586.352+65.7599+597.352+53.7599+612.152+53.7599C619.752+53.7599+626.152+56.7599+630.752+61.7599L638.752+53.7599C632.152+47.3599+623.152+43.1599+612.152+43.1599C591.552+43.1599+574.352+59.9599+574.352+80.5599C574.352+102.76+589.952+117.96+612.152+117.96Z" stroke-linejoin="round" stroke="#5a6e66" fill="#84a196" stroke-width="0.1"/>
</g>
</svg>
